<svg width="360" height="360" viewBox="0 0 360 360" fill="none" xmlns="http://www.w3.org/2000/svg">
<path opacity="0.3" d="M179.999 359.5C144.498 359.5 109.794 348.972 80.2751 329.249C50.7565 309.525 27.7497 281.491 14.1638 248.692C0.577828 215.893 -2.97694 179.801 3.94911 144.982C10.8752 110.162 27.9707 78.1781 53.0742 53.0746C78.1778 27.9711 110.162 10.8751 144.981 3.9491C179.801 -2.97694 215.892 0.577828 248.692 14.1637C281.491 27.7497 309.525 50.7569 329.249 80.2755C348.972 109.794 359.5 144.498 359.5 179.999C359.419 227.581 340.481 273.191 306.836 306.836C273.191 340.481 227.581 359.419 179.999 359.5Z" stroke="#FFCE35"/>
</svg>
